<?xml version="1.0" encoding="UTF-8" standalone="no"?>
<!-- Created with Inkscape (http://www.inkscape.org/) -->

<svg
   width="48"
   height="48"
   viewBox="0 0 12.7 12.7"
   version="1.1"
   id="svg1"
   xml:space="preserve"
   xmlns="http://www.w3.org/2000/svg"
   xmlns:svg="http://www.w3.org/2000/svg"><defs
     id="defs1" /><rect
     style="display:inline;fill:#000000;stroke-width:0;stroke-linejoin:round"
     id="rect1"
     width="12.7"
     height="12.7"
     x="0"
     y="0"
     rx="1.065398"
     ry="1.0653979" /><g
     id="layer3"><text
       xml:space="preserve"
       style="font-style:normal;font-variant:normal;font-weight:bold;font-stretch:normal;font-size:5.64444px;line-height:1;font-family:Poppins;-inkscape-font-specification:'Poppins, Bold';font-variant-ligatures:normal;font-variant-caps:normal;font-variant-numeric:normal;font-variant-east-asian:normal;text-align:start;writing-mode:lr-tb;direction:ltr;text-anchor:start;fill:#ffffff;stroke-width:0;stroke-linejoin:round"
       x="0.44873866"
       y="12.04383"
       id="text1"><tspan
         id="tspan1"
         style="font-style:normal;font-variant:normal;font-weight:bold;font-stretch:normal;font-size:5.64444px;font-family:Poppins;-inkscape-font-specification:'Poppins, Bold';font-variant-ligatures:normal;font-variant-caps:normal;font-variant-numeric:normal;font-variant-east-asian:normal;stroke-width:0"
         x="0.44873866"
         y="12.04383">SUG</tspan></text></g><g
     id="layer1"><path
       style="fill:#ffffff;fill-opacity:1;stroke-width:0.751754"
       d="M 5.6458508,4.3281749 C 5.5997141,4.3016439 5.5949015,4.2784269 5.5945189,4.0805393 l -3.584e-4,-0.1853838 0.029568,-0.029568 c 0.039996,-0.039996 0.097631,-0.041225 0.1359563,-0.0029 l 0.026668,0.026668 V 4.084662 c 0,0.1880352 -8.495e-4,0.1962816 -0.02276,0.2215003 -0.027336,0.03146 -0.083164,0.041898 -0.117742,0.022013 z"
       id="path11" /><path
       style="fill:#ffffff;fill-opacity:1;stroke-width:0.751754"
       d="m 1.5722055,4.3122862 -0.033035,-0.029503 -0.00349,-0.1538734 c -0.00432,-0.1905982 0.00193,-0.2371643 0.036109,-0.268831 0.027909,-0.025865 0.08015,-0.032085 0.114606,-0.013645 0.042027,0.022492 0.050017,0.060089 0.050017,0.2353996 0,0.1840451 -0.00809,0.2228122 -0.051171,0.2450881 -0.043255,0.022368 -0.076417,0.018075 -0.1130444,-0.014636 z"
       id="path10" /><path
       style="fill:#ffffff;fill-opacity:1;stroke-width:0.751754"
       d="M 5.138421,4.6575898 C 5.078001,4.6274318 5.077221,4.6194048 5.080447,4.0608892 l 0.00289,-0.4996593 0.033035,-0.02951 c 0.060862,-0.054366 0.1444988,-0.026563 0.1589568,0.052844 0.0034,0.018686 0.00485,0.2580554 0.00319,0.5319329 l -0.00299,0.4979592 -0.025288,0.024302 c -0.035094,0.033724 -0.07015,0.039628 -0.1118163,0.01883 z"
       id="path9" /><path
       style="fill:#ffffff;fill-opacity:1;stroke-width:0.751754"
       d="m 2.1039836,4.6593553 c -0.017597,-0.00868 -0.037065,-0.02802 -0.043261,-0.042982 -0.0079,-0.019095 -0.010436,-0.1819166 -0.00847,-0.5462747 l 0.0028,-0.519072 0.028381,-0.024407 c 0.04059,-0.034908 0.091136,-0.032888 0.1291851,0.00516 l 0.029568,0.029568 v 0.522385 c 0,0.3548561 -0.00351,0.5289343 -0.010931,0.5428071 -0.00965,0.018028 -0.065879,0.049451 -0.087371,0.048825 -0.00435,-1.266e-4 -0.022308,-0.00733 -0.039906,-0.01601 z"
       id="path8" /><path
       style="fill:#ffffff;fill-opacity:1;stroke-width:0.751754"
       d="M 4.130305,5.0519274 C 4.1179765,5.0500719 4.0963559,5.0348398 4.0822562,5.018084 L 4.0566232,4.9876199 V 4.0926827 c 0,-0.9719198 -0.00204,-0.9366261 0.055353,-0.9627708 0.0431,-0.019638 0.075418,-0.014371 0.107272,0.017484 l 0.029568,0.029568 v 0.9097826 0.9097826 l -0.025535,0.025535 c -0.026561,0.026561 -0.054773,0.035623 -0.092974,0.029862 z"
       id="path7" /><path
       style="fill:#ffffff;fill-opacity:1;stroke-width:0.751754"
       d="M 3.1453323,5.052138 C 3.1330033,5.050158 3.1113823,5.034839 3.0972833,5.018084 L 3.0716505,4.9876203 V 4.0926832 c 0,-0.9719199 -0.00203,-0.9366262 0.055353,-0.9627707 0.043101,-0.019638 0.075418,-0.014371 0.107272,0.017484 l 0.029568,0.029568 -2.249e-4,0.9086332 c -2.094e-4,0.8459447 -0.00144,0.9102027 -0.017739,0.9313842 -0.019061,0.02476 -0.065053,0.040843 -0.1005473,0.035156 z"
       id="path6" /><path
       style="fill:#ffffff;fill-opacity:1;stroke-width:0.751754"
       d="m 4.6262028,5.9908804 c -0.012194,-0.00512 -0.030401,-0.021875 -0.040462,-0.037228 -0.017444,-0.026622 -0.018429,-0.1115821 -0.021256,-1.8339561 -0.00163,-0.9933225 -2.74e-4,-1.8249844 0.00301,-1.8481377 0.016995,-0.1196537 0.1708359,-0.1293885 0.1918338,-0.012139 0.00335,0.018703 0.00479,0.8543855 0.00321,1.8570725 l -0.00289,1.8230675 -0.025288,0.025272 c -0.028634,0.028617 -0.075287,0.039853 -0.1081503,0.026048 z"
       id="path4" /><path
       style="fill:#ffffff;fill-opacity:1;stroke-width:0.751754"
       d="M 2.619577,5.9904977 C 2.607383,5.9855877 2.589176,5.9690057 2.579116,5.9536527 2.561672,5.9270307 2.560687,5.8420702 2.55786,4.1196965 2.55623,3.126374 2.557586,2.294712 2.56087,2.2715587 2.571778,2.1947657 2.644737,2.1536274 2.7090145,2.1880277 c 0.051146,0.027373 0.049055,-0.053566 0.049055,1.8990423 0,1.2659254 -0.00329,1.8290272 -0.010818,1.8506205 -0.00677,0.019432 -0.02342,0.037017 -0.044519,0.047028 -0.037601,0.017843 -0.050911,0.018769 -0.083158,0.00578 z"
       id="path3" /><path
       style="fill:#ffffff;fill-opacity:1;stroke-width:0.751754"
       d="M 3.6155116,6.3859242 3.582477,6.3564079 V 3.911885 1.467362 L 3.615512,1.437845 C 3.633682,1.421611 3.66008,1.408329 3.674178,1.408329 c 0.04103,0 0.082171,0.026993 0.094337,0.061894 0.015958,0.045777 0.015958,4.8375456 0,4.8833228 -0.012168,0.034902 -0.053307,0.061895 -0.094337,0.061895 -0.014097,0 -0.040497,-0.013282 -0.058666,-0.029517 z"
       id="path1" /><path
       style="fill:#ffffff;fill-opacity:1;stroke-width:0.751754"
       d="m 10.819674,4.3300158 c -0.04614,-0.026531 -0.05095,-0.049748 -0.05133,-0.2476356 l -3.58e-4,-0.1853838 0.02957,-0.029568 c 0.04,-0.039996 0.09763,-0.041225 0.135956,-0.0029 l 0.02667,0.026668 v 0.1953065 c 0,0.1880352 -8.49e-4,0.1962816 -0.02276,0.2215003 -0.02734,0.03146 -0.08316,0.041898 -0.117742,0.022013 z"
       id="path11-0" /><path
       style="fill:#ffffff;fill-opacity:1;stroke-width:0.751754"
       d="m 6.7460298,4.3141271 -0.033035,-0.029503 -0.00349,-0.1538734 c -0.00432,-0.1905982 0.00193,-0.2371643 0.036109,-0.268831 0.027909,-0.025865 0.08015,-0.032085 0.114606,-0.013645 0.042027,0.022492 0.050017,0.060089 0.050017,0.2353996 0,0.1840451 -0.00809,0.2228122 -0.051171,0.2450881 -0.043255,0.022368 -0.076417,0.018075 -0.1130444,-0.014636 z"
       id="path10-3" /><path
       style="fill:#ffffff;fill-opacity:1;stroke-width:0.751754"
       d="m 10.312244,4.6594307 c -0.06042,-0.030158 -0.0612,-0.038185 -0.05797,-0.5967006 l 0.0029,-0.4996593 0.03303,-0.02951 c 0.06086,-0.054366 0.144499,-0.026563 0.158957,0.052844 0.0034,0.018686 0.0048,0.2580554 0.0032,0.5319329 l -0.003,0.4979592 -0.02529,0.024302 c -0.03509,0.033724 -0.07015,0.039628 -0.111816,0.01883 z"
       id="path9-9" /><path
       style="fill:#ffffff;fill-opacity:1;stroke-width:0.751754"
       d="m 7.2778079,4.6611962 c -0.017597,-0.00868 -0.037065,-0.02802 -0.043261,-0.042982 -0.0079,-0.019095 -0.010436,-0.1819166 -0.00847,-0.5462747 l 0.0028,-0.519072 0.028381,-0.024407 c 0.04059,-0.034908 0.091136,-0.032888 0.1291851,0.00516 l 0.029568,0.029568 v 0.522385 c 0,0.3548561 -0.00351,0.5289343 -0.010931,0.5428071 -0.00965,0.018028 -0.065879,0.049451 -0.087371,0.048825 -0.00435,-1.266e-4 -0.022308,-0.00733 -0.039906,-0.01601 z"
       id="path8-9" /><path
       style="fill:#ffffff;fill-opacity:1;stroke-width:0.751754"
       d="m 9.3041286,5.0537683 c -0.01233,-0.00186 -0.03395,-0.017088 -0.04805,-0.033843 l -0.02563,-0.030465 V 4.0945236 c 0,-0.9719198 -0.002,-0.9366261 0.05535,-0.9627708 0.0431,-0.019638 0.07542,-0.014371 0.107272,0.017484 l 0.02957,0.029568 V 4.0885874 4.99837 l -0.02553,0.025535 c -0.02656,0.026561 -0.05477,0.035623 -0.09297,0.029862 z"
       id="path7-9" /><path
       style="fill:#ffffff;fill-opacity:1;stroke-width:0.751754"
       d="m 8.3191566,5.0539789 c -0.012329,-0.00198 -0.03395,-0.017299 -0.048049,-0.034054 L 8.2454748,4.9894612 V 4.0945241 c 0,-0.9719199 -0.00203,-0.9366262 0.055353,-0.9627707 0.043101,-0.019638 0.075418,-0.014371 0.107272,0.017484 l 0.029568,0.029568 -2.249e-4,0.9086332 c -2.094e-4,0.8459447 -0.00144,0.9102027 -0.017739,0.9313842 -0.019061,0.02476 -0.065053,0.040843 -0.1005473,0.035156 z"
       id="path6-1" /><path
       style="fill:#ffffff;fill-opacity:1;stroke-width:0.751754"
       d="m 9.8000263,5.9927213 c -0.01219,-0.00512 -0.0304,-0.021875 -0.04046,-0.037228 -0.01744,-0.026622 -0.01843,-0.1115821 -0.02126,-1.8339561 -0.0016,-0.9933225 -2.74e-4,-1.8249844 0.003,-1.8481377 0.017,-0.1196537 0.170836,-0.1293885 0.191834,-0.012139 0.0034,0.018703 0.0048,0.8543855 0.0032,1.8570725 l -0.0029,1.8230675 -0.02529,0.025272 c -0.02863,0.028617 -0.07529,0.039853 -0.10815,0.026048 z"
       id="path4-2" /><path
       style="fill:#ffffff;fill-opacity:1;stroke-width:0.751754"
       d="m 7.7934013,5.9923386 c -0.012194,-0.00491 -0.030401,-0.021492 -0.040461,-0.036845 -0.017444,-0.026622 -0.018429,-0.1115825 -0.021256,-1.8339562 -0.00163,-0.9933225 -2.74e-4,-1.8249845 0.00301,-1.8481378 0.010908,-0.076793 0.083867,-0.1179313 0.1481445,-0.083531 0.051146,0.027373 0.049055,-0.053566 0.049055,1.8990423 0,1.2659254 -0.00329,1.8290272 -0.010818,1.8506205 -0.00677,0.019432 -0.02342,0.037017 -0.044519,0.047028 -0.037601,0.017843 -0.050911,0.018769 -0.083158,0.00578 z"
       id="path3-3" /><path
       style="fill:#ffffff;fill-opacity:1;stroke-width:0.751754"
       d="M 8.7893359,6.3877651 8.7563013,6.3582488 V 3.9137259 1.4692029 l 0.033035,-0.029517 c 0.01817,-0.016234 0.044568,-0.029516 0.058666,-0.029516 0.04103,0 0.082171,0.026993 0.094337,0.061894 0.015958,0.045777 0.015958,4.8375456 0,4.8833228 -0.012168,0.034902 -0.053307,0.061895 -0.094337,0.061895 -0.014097,0 -0.040497,-0.013282 -0.058666,-0.029517 z"
       id="path1-5" /></g><g
     id="layer4"><rect
       style="fill:#0187ff;fill-opacity:1;stroke-width:0;stroke-linejoin:round"
       id="rect11"
       width="4.2074394"
       height="0.2481968"
       x="1.5721658"
       y="5.1229744"
       rx="1"
       ry="0" /><rect
       style="fill:#c82222;fill-opacity:1;stroke-width:0;stroke-linejoin:round"
       id="rect11-3"
       width="4.2074394"
       height="0.2481968"
       x="6.754961"
       y="2.7842312"
       rx="1"
       ry="0" /></g></svg>
